PathFileType	4	(X/Y/Z)	Patient4_TMGait_0pt6_01_left_31.trc.trc
DataRate	CameraRate	NumFrames	NumMarkers	Units	OrigDataRate	OrigDataStartFrame	OrigNumFrames
80.924855491329	80.924855491329	5	33	mm	80.924855491329	18	       141
Frame#	Time	Sacral			L.Shoulder			Chest			R.Shoulder			Neck			R.ASIS			L.ASIS			R.Thigh.Superior			R.Thigh.Lateral			R.Thigh.Inferior			R.Patella			L.Thigh.Superior			L.Thigh.Lateral			L.Thigh.Inferior			L.Patella			L.Shank.Superior			L.Shank.Lateral			L.Shank.Inferior			R.Shank.Superior			R.Shank.Lateral			R.Shank.Inferior			R.Heel			R.Midfoot.Superior			R.Midfoot.Lateral			R.Toe			L.Heel			L.Midfoot.Lateral			L.Midfoot.Superior			L.Toe			L.Elbow			L.Wrist			R.Elbow			R.Wrist			
		X1	Y1	Z1	X2	Y2	Z2	X3	Y3	Z3	X4	Y4	Z4	X5	Y5	Z5	X6	Y6	Z6	X7	Y7	Z7	X8	Y8	Z8	X9	Y9	Z9	X10	Y10	Z10	X11	Y11	Z11	X12	Y12	Z12	X13	Y13	Z13	X14	Y14	Z14	X15	Y15	Z15	X16	Y16	Z16	X17	Y17	Z17	X18	Y18	Z18	X19	Y19	Z19	X20	Y20	Z20	X21	Y21	Z21	X22	Y22	Z22	X23	Y23	Z23	X24	Y24	Z24	X25	Y25	Z25	X26	Y26	Z26	X27	Y27	Z27	X28	Y28	Z28	X29	Y29	Z29	X30	Y30	Z30	X31	Y31	Z31	X32	Y32	Z32	X33	Y33	Z33	

18	37.860071428571	726.992906270197	1017.809183179225	514.027783404719	904.657288880193	1431.549629409463	314.482024617259	1024.021366698245	1356.769041283840	461.045041149606	968.321325784195	1434.185824101673	642.800212625481	905.435518020981	1492.240030388751	468.654828110392	954.916409263803	932.440818126847	608.468398193145	919.980651477595	960.544666109677	336.864784407899	955.340369611680	722.985979164562	576.630081870613	854.878361195770	630.501061803241	639.550554580807	913.288093568254	567.263422521862	555.873050337534	896.267962949014	483.410909898410	560.835813305848	993.234146400451	780.298390214107	367.056098371715	951.848118815163	655.169864386512	285.212238243484	1053.026484765694	597.116848116645	351.760696807269	1084.187455951176	536.359318078518	346.446593975581	1073.300262956637	464.154603569767	335.089646708352	1019.129297479106	328.750025256716	283.088312830157	1113.297240515322	237.366043313473	340.391209970609	861.165563249665	397.958488562851	566.113981490501	780.374157921126	299.673341965528	623.815610641941	814.543907485672	202.916554174430	559.369969819929	669.482895822216	43.103897496369	521.887095033944	839.143897682402	95.907907593186	565.862082139400	748.405803577362	36.735275682184	600.637853362574	957.050364469427	40.748153312697	601.921764024742	1045.812660979306	48.465204866379	377.634226329040	1122.592698810373	59.517414535516	300.604059974922	1182.530090042864	146.566848729809	321.456654104228	1320.627062137575	132.674482865393	302.485567618760	793.246813677602	1087.784275771355	220.470625280265	759.352289857223	831.874082327729	242.215189546700	1085.810681794186	1114.496243374213	762.844590670385	1336.890389238287	1097.707416362400	711.480205324219	
19	37.872428571429	727.915969696168	1016.562410796616	512.948879907531	903.911170452119	1430.812107558647	313.155981714213	1023.846231685194	1356.109000742062	459.282062865957	968.452766629727	1433.480205052997	641.090207938155	905.003623178068	1491.265195341181	467.249449904042	956.037910811164	931.355213815765	606.781064495397	920.479581831362	959.384180465056	335.185814922093	954.975913182544	721.481124361589	574.983816225891	854.064722099080	629.426949903833	638.296862314284	911.571437882153	565.781756039798	554.398380950900	893.719121343430	481.952016538820	559.258882462808	993.392660967189	778.418173109165	366.131958921533	950.465499450492	652.895090052159	285.479863917633	1051.600175791607	594.811337915811	351.416148134797	1082.103125588182	534.035705995634	346.415134496409	1071.469801458467	461.805658744704	335.377344945392	1017.162774296727	325.921212962943	285.443024012795	1112.426277077349	235.477218303664	342.341162125147	857.743559572693	396.718053292552	564.966287213307	776.161983782170	299.357054003349	623.251393117087	808.625612350400	202.199755748474	558.748526301916	661.997889391979	43.105702225899	521.955404747046	831.660032082160	95.839260359012	565.679793368586	740.931933921577	36.688501149247	600.587038663042	949.575232277352	40.689997725437	601.899312257505	1046.289027525080	47.110038667967	382.109278716369	1121.991325933914	57.574092095308	304.076472137374	1182.090099744141	144.609692584745	323.481343903244	1319.817119074415	130.529512611807	303.031114954526	788.303318086433	1088.840208646781	219.718613864627	749.456923001398	833.706616669378	242.707481177508	1091.222634185870	1116.428022945963	759.981210394699	1341.982150023413	1114.321390725024	706.842703276250	
20	37.884785714286	729.119171284025	1015.148189725221	511.649739804361	903.077001996856	1430.047017171933	311.740614548117	1023.635590354771	1355.518914418471	457.426857792386	968.440624839417	1432.744101237751	639.304451438157	904.441012498129	1490.235213739248	465.751108436638	957.453437680527	930.257602918221	605.003509875976	921.369843498869	958.114717528440	333.426221066480	954.841858344970	719.929564955581	573.309421441559	853.429036123050	628.291545637562	636.996046045085	910.107682371243	564.204528606110	552.939368018984	891.380163715723	480.396113955897	557.660508253044	994.223331696059	776.525402184416	364.928700630197	949.295623365497	650.381855355631	285.937040918451	1050.684807705123	592.380506741538	350.819345663216	1080.194928697121	531.147305409120	346.317382532869	1069.364462316967	458.733043886715	335.822473852524	1013.822130763595	322.860216346857	288.024141476937	1109.346197979996	232.636644888049	344.596687440934	854.503160790635	395.419125570570	563.791535862994	772.081655921125	299.057263047779	622.691149531113	802.772824153132	201.487847216472	558.152441689826	654.518725719758	43.161081873028	522.044798105485	824.210621960346	95.788629827659	565.524222766118	733.478030438655	36.644061251713	600.530018702660	942.113937896380	40.590040056231	601.889337095943	1042.892250094478	45.681765307840	386.816059365632	1117.529224201807	54.985741783671	307.738529784149	1178.634393598012	141.224323368387	325.878383514906	1315.757427593480	125.580060067942	303.809642702342	783.889206862117	1089.736920438362	218.896408472828	740.822394614497	835.316545667591	242.925180031646	1096.099173846299	1118.195395056820	757.016538430185	1345.702739319187	1130.075475488963	702.281386673654	
21	37.897142857143	730.578350455545	1013.588918886843	510.127596823359	902.193622031031	1429.231188047585	310.225359795943	1023.412992526059	1354.981345883031	455.482351952981	968.306576470790	1431.965353288251	637.447953235823	903.781802285803	1489.145485036062	464.153486294232	959.133673424602	929.136015992800	603.151343609195	922.646241378007	956.741198450563	331.601348771786	954.929976190168	718.333948843747	571.642016797753	852.942266507906	627.108160376340	635.653162939280	908.891744310726	562.540793384673	551.518780421199	889.250780886242	478.731668058537	556.061850375426	995.641487976741	774.556802967466	363.444981112473	948.289769089331	647.651080917809	286.509995689071	1050.170612469067	589.787018204837	350.043118730983	1078.375553664449	527.753281315394	346.266386709264	1067.033304877035	455.061534737325	336.446404652635	1009.480621932603	319.578619897116	290.656098167606	1104.546344698506	228.976607412204	347.073354011412	851.431542698930	394.060476095005	562.597014715618	768.109764973997	298.781029874823	622.138782633987	796.976054033951	200.788552353124	557.591257049581	647.040996793029	43.283943145364	522.164102231511	816.801721651883	95.761979412482	565.408508797274	726.043680810489	36.611051125929	600.482486840478	934.671349237811	40.449323030974	601.895203476025	1036.340250951231	44.145085478973	391.418609636468	1110.060267014501	51.885196990796	311.384131723308	1172.872173361308	136.620788977756	328.630073517281	1309.241742824557	118.228827617731	305.027340154172	779.989691676393	1090.429536227566	217.982982568708	733.465504167006	836.628963719879	242.850554703887	1100.434417204026	1119.734398173446	753.992352240165	1348.167346717448	1144.823154295073	697.828177739318	
22	37.909500000000	732.254900665525	1011.922227344444	508.389645453341	901.305885235374	1428.351619607636	308.600201483328	1023.203087760092	1354.485767196554	453.454853058707	968.076553228757	1431.143484181010	635.528223413140	903.069011070711	1488.005139410638	462.452286705207	961.040019484714	927.985692765524	601.237191691443	924.278794619448	955.287721622831	329.723800020258	955.238492773824	716.706722267649	570.009145301589	852.593685996990	625.896311942437	634.264319857478	907.935327502722	560.809283468506	550.145678251284	887.357309388779	476.948268778878	554.477386498642	997.523141717894	772.470248796263	361.702872622241	947.418252190448	644.773299069430	287.096917423472	1049.939775257998	587.037638233315	349.161363212290	1076.576743842132	523.977427371462	346.332328201968	1064.549302835147	450.983271400292	337.220639255489	1004.555347157207	316.150278397151	293.160855308623	1098.596041041081	224.733747370977	349.654188683726	848.532608647061	392.645829121346	561.386964846214	764.237307368838	298.543592114201	621.595000713880	791.236052996508	200.116611845254	557.072958543017	639.561832762656	43.505198867050	522.322608270777	809.443389076124	95.765498194138	565.344215294659	718.628964753580	36.607275537585	600.460393828768	927.253493589515	40.271000964960	601.918429888723	1027.508208421372	42.551057788954	395.637488897179	1100.546233038138	48.502601958589	314.823366984303	1165.585834515390	131.144837332227	331.666482845805	1301.118197250440	109.081452789620	306.775015871572	776.602653405378	1090.882499904336	216.959382429017	727.396815039084	837.584446031096	242.466302926995	1104.221559077115	1120.982397226296	750.946898934417	1349.501403995716	1158.434069164337	693.508314434279	
